<?xml version="1.0" encoding="utf-8"?><!-- Uploaded to: SVG Repo, www.svgrepo.com, Generator: SVG Repo Mixer Tools -->
<svg fill="#000000" width="800px" height="800px" viewBox="0 0 24 24" xmlns="http://www.w3.org/2000/svg" id="file-search" class="icon glyph"><path d="M18,7.41V9.26A6.89,6.89,0,0,0,14,8a7,7,0,0,0-3.6,13H4a2,2,0,0,1-2-2V4A2,2,0,0,1,4,2h8.59A2,2,0,0,1,14,2.59L17.41,6A2,2,0,0,1,18,7.41Zm3.76,14.24a1,1,0,0,1-1.41.11l-3.3-2.83A5,5,0,1,1,19,15a4.9,4.9,0,0,1-.65,2.41l3.3,2.83A1,1,0,0,1,21.76,21.65ZM14,18a3,3,0,1,0-3-3A3,3,0,0,0,14,18Z"></path></svg>